<svg xmlns="http://www.w3.org/2000/svg" viewBox="0 0 128 128">
  <defs>
    <linearGradient id="g" x1="0" y1="0" x2="0" y2="1">
      <stop offset="0" stop-color="#3b4152"/>
      <stop offset="1" stop-color="#171a22"/>
    </linearGradient>
    <radialGradient id="h" cx="0.35" cy="0.25" r="0.9">
      <stop offset="0" stop-color="#ffffff" stop-opacity="0.20"/>
      <stop offset="1" stop-color="#ffffff" stop-opacity="0"/>
    </radialGradient>
    <filter id="s" x="-20%" y="-20%" width="140%" height="160%">
      <feDropShadow dx="0" dy="6" stdDeviation="4" flood-color="#000" flood-opacity="0.45"/>
    </filter>
  </defs>
  <g filter="url(#s)">
    <ellipse cx="64" cy="104" rx="42" ry="12" fill="#000" opacity="0.20"/>
    <path d="M64 18c11 0 20 9 20 20 0 9-6 17-14 19 12 10 20 24 20 40H38c0-16 8-30 20-40-8-2-14-10-14-19 0-11 9-20 20-20z"
          fill="url(#g)" stroke="#0b0c10" stroke-opacity="0.9" stroke-width="2" />
    <path d="M36 94h56c4 0 8 3 8 8v6H28v-6c0-5 4-8 8-8z"
          fill="#1a1d27" stroke="#0b0c10" stroke-opacity="0.9" stroke-width="2"/>
    <path d="M44 33c5-7 15-10 25-8 8 2 14 8 15 16-6-10-20-13-29-9-7 3-12 8-11 15-4-4-4-9 0-14z" fill="url(#h)"/>
  </g>
</svg>

