<svg xmlns="http://www.w3.org/2000/svg" viewBox="0 0 128 128">
  <defs>
    <linearGradient id="g" x1="0" y1="0" x2="0" y2="1">
      <stop offset="0" stop-color="#ffffff"/>
      <stop offset="1" stop-color="#e5eaf2"/>
    </linearGradient>
    <radialGradient id="h" cx="0.35" cy="0.18" r="0.9">
      <stop offset="0" stop-color="#ffffff" stop-opacity="0.55"/>
      <stop offset="1" stop-color="#ffffff" stop-opacity="0"/>
    </radialGradient>
    <filter id="s" x="-20%" y="-20%" width="140%" height="160%">
      <feDropShadow dx="0" dy="6" stdDeviation="4" flood-color="#000" flood-opacity="0.35"/>
    </filter>
  </defs>
  <g filter="url(#s)">
    <ellipse cx="64" cy="106" rx="46" ry="12" fill="#000" opacity="0.18"/>
    <path d="M58 18h12v12h12v10H70v12c10 8 16 18 16 32 0 10-3 18-8 24H50c-5-6-8-14-8-24 0-14 6-24 16-32V40H46V30h12V18z"
          fill="url(#g)" stroke="#98a1b2" stroke-opacity="0.55" stroke-width="2"/>
    <path d="M34 92h60c6 0 10 4 10 10v6H24v-6c0-6 4-10 10-10z"
          fill="#e3e8f0" stroke="#98a1b2" stroke-opacity="0.55" stroke-width="2"/>
    <path d="M48 44c7-9 22-12 34-6 8 4 13 12 12 20-4-12-15-18-27-17-9 1-17 6-21 13-2-5-1-8 2-10z" fill="url(#h)"/>
  </g>
</svg>

