<svg xmlns="http://www.w3.org/2000/svg" viewBox="0 0 128 128">
  <defs>
    <linearGradient id="g" x1="0" y1="0" x2="0" y2="1">
      <stop offset="0" stop-color="#ffffff"/>
      <stop offset="1" stop-color="#e5eaf2"/>
    </linearGradient>
    <radialGradient id="h" cx="0.35" cy="0.25" r="0.9">
      <stop offset="0" stop-color="#ffffff" stop-opacity="0.55"/>
      <stop offset="1" stop-color="#ffffff" stop-opacity="0"/>
    </radialGradient>
    <filter id="s" x="-20%" y="-20%" width="140%" height="160%">
      <feDropShadow dx="0" dy="6" stdDeviation="4" flood-color="#000" flood-opacity="0.35"/>
    </filter>
  </defs>
  <g filter="url(#s)">
    <ellipse cx="64" cy="106" rx="44" ry="12" fill="#000" opacity="0.18"/>
    <path d="M42 88c0-16 9-26 22-34-2-10 3-20 12-26 6-4 14-5 21-3-6 3-9 9-7 15 2 6 7 9 12 10-6 8-17 10-25 6l-3 7c10 6 16 14 16 25H42z"
          fill="url(#g)" stroke="#98a1b2" stroke-opacity="0.55" stroke-width="2"/>
    <path d="M36 88h56c6 0 10 4 10 10v8H26v-8c0-6 4-10 10-10z"
          fill="#e3e8f0" stroke="#98a1b2" stroke-opacity="0.55" stroke-width="2"/>
    <path d="M72 40c6 0 11 3 13 8-4-2-9-2-13 0-4 2-6 6-6 10-3-6-2-13 6-18z" fill="url(#h)"/>
    <circle cx="73" cy="54" r="3" fill="#0b0c10" opacity="0.7"/>
  </g>
</svg>

