<svg xmlns="http://www.w3.org/2000/svg" viewBox="0 0 128 128">
  <defs>
    <linearGradient id="g" x1="0" y1="0" x2="0" y2="1">
      <stop offset="0" stop-color="#ffffff"/>
      <stop offset="1" stop-color="#e5eaf2"/>
    </linearGradient>
    <radialGradient id="h" cx="0.35" cy="0.18" r="0.9">
      <stop offset="0" stop-color="#ffffff" stop-opacity="0.55"/>
      <stop offset="1" stop-color="#ffffff" stop-opacity="0"/>
    </radialGradient>
    <filter id="s" x="-20%" y="-20%" width="140%" height="160%">
      <feDropShadow dx="0" dy="6" stdDeviation="4" flood-color="#000" flood-opacity="0.35"/>
    </filter>
  </defs>
  <g filter="url(#s)">
    <ellipse cx="64" cy="106" rx="46" ry="12" fill="#000" opacity="0.18"/>
    <path d="M38 34l10 18 16-24 16 24 10-18c6 18 2 34-10 46 8 6 12 14 12 24H36c0-10 4-18 12-24-12-12-16-28-10-46z"
          fill="url(#g)" stroke="#98a1b2" stroke-opacity="0.55" stroke-width="2"/>
    <circle cx="40" cy="30" r="6" fill="#e3e8f0" stroke="#98a1b2" stroke-opacity="0.55" stroke-width="2"/>
    <circle cx="64" cy="24" r="7" fill="#e3e8f0" stroke="#98a1b2" stroke-opacity="0.55" stroke-width="2"/>
    <circle cx="88" cy="30" r="6" fill="#e3e8f0" stroke="#98a1b2" stroke-opacity="0.55" stroke-width="2"/>
    <path d="M34 92h60c6 0 10 4 10 10v6H24v-6c0-6 4-10 10-10z"
          fill="#e3e8f0" stroke="#98a1b2" stroke-opacity="0.55" stroke-width="2"/>
    <path d="M48 40c7-8 20-10 30-5 7 4 11 11 10 18-4-11-14-16-24-15-8 1-15 6-18 12-2-5-1-8 2-10z" fill="url(#h)"/>
  </g>
</svg>

